<svg id="Layer_1" data-name="Layer 1" xmlns="http://www.w3.org/2000/svg" viewBox="0 0 750.67 117.91"><path d="M652.72,91.83c2.5-.58,3.08-2.09,4.57-3.41,11.46-10.2,14.25-24.12,16.09-38.32.37-2.88,1.06-4.26,4-4.8,4.15-.77,8.49-1,13.36-3.8-3.35-1.08-5.82-2.26-8.4-2.63-10.13-1.68-9.69.92-10.45-10.18a53.13,53.13,0,0,0-3.41-14.35c-1.39-3.65-3.56-7.85-8.46-9,.77-3.11,3-4.07,5.3-4.84,21.15-3.44,78.46,10.49,85.4,89,0,5-2.68,6.64-6.87,6.92-11.25.76-22-1.79-32.47-5.52-7.4-2.64-14.68-5.74-22.58-6.61-7.32-.81-13,1.74-19.6,3.94-4,1.35-8.45,4.44-12.46,5.87C655.25,94.53,653.6,94,652.72,91.83Zm26.73-13.44c14-4.11,19.09-2.16,27.47.1,8.22,2.23,16.22,6.41,24.94,6.38,3.68.16,6.42-.5,6.41-4a56,56,0,0,0-1.74-10.71c-5-21.38-19.27-36.05-35.95-48.89-5.37-4.14-11.68-6-19.23-8,2,12.54.4,26,19.11,28.86-7.36,3.25-14.05,4.54-14.69,11.82C685.65,62.32,685.7,66.35,679.45,78.39Z"/><path d="M50,19.22c2.32-2.56,6.55-3.84,11.43-2.44,5.25,1.52,6.59,5.82,6.62,10.58.1,15.82,0,31.64,0,47.45,0,4.76-.57,9.61,1.71,14-4.39,5-15,4.3-20.85-1.49C40.94,79.37,36.54,69,30.63,59.62c-3.75-5.94-7.24-12-11.64-19.4,1.31,16.7-1.41,32.2,2,48.92-2.15,2.45-6.34,3.77-11.24,2.49-5.36-1.4-6.64-5.72-6.67-10.48C3,63.74,3,46.32,3.05,28.91c0-3.08-.36-6-3-7.92,4.17-7.55,18.23-6,24,2.75,5,7.72,9.62,15.72,14.39,23.61,4.35,7.19,8.68,14.4,13.87,23C50.78,52.86,53.73,36.64,50,19.22Z"/><path d="M278.25,74.36c-8.77-11.54-10-20-4.4-28.07,6.09-8.71,16.3-10.68,31.56-6,1.45-6.49,3.18-13,11.88-12.28,3.76.29,6,2.8,6.7,6.44.61,3.36.07,6.49-3.1,8.69-3.79-1.94-7.33-2.76-9.7,1.78,6.79,17.39,2.74,28.7-11.51,32.53a25.68,25.68,0,0,1-12.5.21c-2-.44-3.22.06-3.69,1.9a2.66,2.66,0,0,0,2.5,3.58c5.35.33,10.71.48,16.07.48,7.3,0,14.26.54,16.75,9.1,2.33,8-1.06,15.93-9.18,20.31-11.32,6.1-23.33,6.12-35.19,2-5.32-1.86-9.07-6-7.26-12.35,1.24-4.36,5-5.62,9.11-5.77,4.11,8.93,23,12.62,30.46,6.14.94-.82,1.56-1.79,1.1-3s-1.62-1.27-2.73-1.29c-6.67-.12-13.38.17-20-.49-6-.59-11.72-2.59-13.69-9.29S272.54,77.7,278.25,74.36Zm20.24-13.54c0-5-.2-9.19-2.06-13.09-.89-1.85-2.24-3.2-4.54-3.08s-3.45,1.69-4.1,3.62a24,24,0,0,0-.51,11.81c.76,4.33.08,10.82,6.27,10.66C300,70.58,297.75,64.12,298.49,60.82Z"/><path d="M417.79,36.74c1.33-4.46.28-8.12-4.69-9.4-6.1-1.58-12.43-2-16.86,3.4-2.82,3.44-.22,6.67,2.9,8.45,5.66,3.23,11.57,6,17.42,8.9,4.44,2.18,8.81,4.4,12.57,7.71,9.92,8.71,9.41,22-1.23,29.86-11.53,8.49-32.63,8.6-44.25.18-3.93-2.85-6.4-6.54-5.7-11.67.53-4,3-6.38,6.71-7.46a11.69,11.69,0,0,1,11.47,2.69c-3.4,7.35-1.34,10.95,6.77,12.14a19,19,0,0,0,2.58.33c5.69,0,11.91,0,14-6.51,2.22-6.78-3.37-9.76-8.16-12.34-7.71-4.16-16.1-7.2-23.4-12-12.71-8.28-12-23.19,1.38-30.24s26.9-6.55,39.83,1.22c5.7,3.42,7,10.45,3.49,14.68C429.43,40.64,422,40.72,417.79,36.74Z"/><path d="M438.35,17c3.4-4.11,7.66-5,12.32-4.06,4.4.85,6.63,4.14,6.78,8.26.31,8.22.09,16.46.09,25.92,4.2-6,8.95-8.72,14.82-9.5,11.11-1.48,18.05,5.16,18.21,17.51.11,7.84.05,15.67,0,23.51,0,3.3-.18,6.61,3.14,8.94-3.5,3.93-7.53,5.28-12.3,4.14-5.37-1.28-6.85-5.54-7-10.27-.22-7.9-.09-15.81-.11-23.72,0-2.85-.74-5.37-3.55-6.69s-5.4-.47-7.69,1.36A12.93,12.93,0,0,0,458,62.11c-.25,6.59,0,13.19,0,19.79,0,2.36,1.36,4,3,5.8-3.49,3.76-7.57,5.21-12.41,3.94-5.56-1.44-6.82-6-6.85-10.82-.12-17.85-.07-35.69,0-53.54C441.69,23.48,442,19.65,438.35,17Z"/><path d="M122.61,87.88a11.43,11.43,0,0,1-12.36,3.72c-4.94-1.35-6.53-5.35-6.56-9.9-.11-18.06-.07-36.12-.06-54.18,0-3.87.29-7.79-3.39-10.54,3.59-4.21,8-5.09,12.77-3.94,4.6,1.1,6.34,4.75,6.46,9,.22,7.81.07,15.64.07,24.74,3.52-4.53,6.89-7.18,11.26-8.45,12.91-3.77,21.5,3.13,21.69,17.59.11,7.76.07,15.52,0,23.28,0,3.12.11,6.12,2.95,8.36a11.22,11.22,0,0,1-12.33,4.08c-5.12-1.28-6.59-5.39-6.74-10-.2-6.67,0-13.35-.07-20-.06-4.63,1-10.46-5.7-11-6.2-.55-9.66,4.31-10.24,9.59-.86,7.73-.37,15.62-.17,23.43C120.24,85,121.68,86.31,122.61,87.88Z"/><path d="M620.27,63.51c4.75,6.54,11,10.51,24,15.38.19,4.18-.8,8-4.22,10.78A10.71,10.71,0,0,1,628.16,91c-7.39-3.48-11.46-10.24-15.91-16.59-1.07-1.53-2.07-3.1-3.79-5.67,1,7.1-1.66,13.55,3.33,19.07a11.34,11.34,0,0,1-12.41,3.82c-5-1.37-6.54-5.47-6.56-10.12-.08-18.43,0-36.86,0-55.28,0-3.42-.28-6.71-3.35-9.19,3.32-4.21,7.65-5.05,12.34-4.05,5,1.06,6.79,5,6.86,9.62.18,10.66.07,21.33.08,32V57.7c8.94-4.55,16.82-9.19,18.35-20.15,5.59-.07,10.94.6,13.91,6s.42,9.5-4,12.7C632,59.79,626.17,61.51,620.27,63.51Z"/><path d="M234.58,88a11.57,11.57,0,0,1-12.4,3.59c-5.09-1.43-6.45-5.6-6.52-10.17-.17-10-.09-20,0-30,0-3.54,0-7-3.31-9.47,3-3.93,6.91-4.85,11.32-4.35,5.18.6,7.28,4.14,8,9.23,2.7-3.81,5.78-6.56,9.88-8,13.07-4.68,22.71,2.11,22.9,16.26.11,8.19,0,16.39,0,24.58,0,3,.08,5.89,3.13,7.88A11.39,11.39,0,0,1,256.71,92c-4.53-.5-7.59-3.19-7.9-7.65-.52-7.58-.38-15.21-.55-22.81-.1-4.55,1-10.31-5.56-10.92-6.33-.59-9.76,4.36-10.37,9.7-.88,7.65-.38,15.48-.18,23.22C232.19,84.89,233.59,86.23,234.58,88Z"/><path d="M546.31,85.93c-4.49,7.89-15.48,8-20.72.26-5.49,4.73-11.82,6.84-19.05,5.53-5.4-1-9.54-3.6-10.89-9.26-1.42-6,.43-10.9,5.45-14.49,7-5,15.18-5.71,23.46-6.26,0-4.19.47-8.28-.14-12.19-.52-3.31-3.72-4-6.41-2.79-4.11,1.78-3.28,5.05-1.41,8.36-3.2,3.48-7.11,4.22-11.49,3.55-3.54-.55-6.17-2.26-7.08-5.85a8.58,8.58,0,0,1,3.71-9.92c9.88-6.41,20.48-7.51,31.28-2.68,6.05,2.7,8,8.31,8.12,14.55.12,7,.14,14.08,0,21.12C541,80.2,541.59,84,546.31,85.93ZM525.05,69c-4.85.16-9,.63-11.45,4.59-1.32,2.1-1.69,4.83.27,6.66,2.31,2.16,5.27,1.67,8,.37C527.18,78.06,524.07,73.32,525.05,69Z"/><path d="M346,37.47c16.18,0,25.77,10.18,25.77,27.32,0,16.87-9.92,27.29-26,27.29s-25.65-10.57-25.63-27.8C320.15,47.61,329.92,37.47,346,37.47Zm9.59,32.2c-.29-7.16-.6-13.55-3.63-19.39-1.76-3.4-4.54-5.28-8.52-4.7-3.61.53-5.23,3.2-6.07,6.36-1.64,6.16-1.17,12.42-.07,18.56s2,13.79,10.28,13.23C356.35,83.14,354.67,74.91,355.55,69.67Z"/><path d="M183.64,37.47c16.14,0,26,10.32,25.93,27.22s-10.1,27.39-25.95,27.39S157.8,81.44,157.79,64.8C157.78,47.81,167.55,37.48,183.64,37.47Zm9.76,32c-.54-6.42-.53-12.8-3.42-18.6-1.74-3.51-4.41-5.77-8.63-5.26-4,.49-5.66,3.4-6.37,6.79a47.36,47.36,0,0,0,1.49,24.2c1.37,4.37,4.05,7.84,9.19,7.36s6.48-4.71,7.21-9C193.18,73,193.24,71.14,193.4,69.42Z"/><path d="M546.43,42c4.9-7.3,14.69-5.54,19.24,3.18,6.92-7.84,13.63-10,19.5-5.92,5.23,3.63,5.46,8.87,3.21,14.17-2,4.75-6.29,5.17-11,4.49.31-4-.25-7.92-5.16-7.36s-6.19,4.92-6.27,9.31c-.11,6.52,0,13.05,0,19.58,0,3,0,6,3.15,8-3.53,4.06-7.63,5.39-12.46,4.21-5-1.22-6.72-5.14-6.81-9.7-.19-9.92-.09-19.86-.09-29.79C549.66,48.39,550,44.51,546.43,42Z"/><path d="M98.32,87.59c-3.45,3.9-7.44,5.13-12.14,4.13a8.14,8.14,0,0,1-6.83-8.2C79,72.44,79,61.35,79,50.27c0-3.13-.19-6.13-3.15-8.31,3-4.12,7.08-5,11.59-4.36,4.32.56,7.07,3.35,7.22,7.49.43,11.36.42,22.74.49,34.11C95.13,82.35,95.39,85.3,98.32,87.59Z"/><path d="M87.21,12.51c6.24.48,9.9,3.16,9.55,8.89-.39,6.51-4.46,10.1-11,10.17-5.81.07-9.27-3.05-9.06-9C76.94,15.63,82,13.47,87.21,12.51Z"/></svg>