<?xml version="1.0" encoding="utf-8"?>
<!-- Generator: Adobe Illustrator 25.0.1, SVG Export Plug-In . SVG Version: 6.00 Build 0)  -->
<svg version="1.1" id="Layer_1" xmlns="http://www.w3.org/2000/svg" xmlns:xlink="http://www.w3.org/1999/xlink" x="0px" y="0px"
	 viewBox="0 0 680 104" style="enable-background:new 0 0 680 104;" xml:space="preserve">
<style type="text/css">
	.st0{fill:#FFFFFF;}
</style>
<g>
	<g>
		<path class="st0" d="M60.7,22.1v62.6h-7.3L19.2,35.5h-0.6v49.1H11V22.1h7.3l34.2,49.2h0.6V22.1H60.7z"/>
		<path class="st0" d="M91.1,84.7h-7.9l23-62.6h7.8l23,62.6H129L110.3,32h-0.5L91.1,84.7z M94,60.2h32v6.7H94V60.2z"/>
		<path class="st0" d="M156,28.8v-6.7h46.9v6.7h-19.7v55.8h-7.6V28.8H156z"/>
		<path class="st0" d="M235,22.1v62.6h-7.6V22.1H235z"/>
		<path class="st0" d="M265.4,22.1L284,74.8h0.7l18.6-52.7h7.9l-23,62.6h-7.8l-23-62.6H265.4z"/>
		<path class="st0" d="M365.6,40.1c-0.2-2.5-1.3-4.4-3.1-5.7c-1.9-1.4-4.4-2-7.5-2c-2.2,0-4,0.3-5.5,0.9c-1.5,0.6-2.6,1.4-3.4,2.5
			c-0.8,1.1-1.2,2.3-1.2,3.6c0,1.1,0.2,2.1,0.7,2.9s1.2,1.6,2.2,2.2c0.9,0.6,2,1.1,3.2,1.6c1.2,0.4,2.5,0.8,3.8,1.1l5.6,1.3
			c2.7,0.6,5.2,1.4,7.5,2.4c2.3,1,4.3,2.3,5.9,3.8c1.7,1.5,3,3.2,3.9,5.3c0.9,2,1.4,4.3,1.4,6.9c0,3.8-1,7.1-2.9,9.9
			c-1.9,2.8-4.7,5-8.3,6.5c-3.6,1.5-8,2.3-13.1,2.3c-5.1,0-9.4-0.8-13.2-2.3c-3.7-1.5-6.7-3.8-8.7-6.9c-2.1-3-3.2-6.8-3.3-11.3h12.8
			c0.1,2.1,0.7,3.8,1.8,5.2c1.1,1.4,2.5,2.4,4.3,3.1c1.8,0.7,3.8,1.1,6.1,1.1c2.2,0,4.2-0.3,5.8-1c1.7-0.7,2.9-1.6,3.9-2.7
			c0.9-1.2,1.4-2.5,1.4-4c0-1.4-0.4-2.6-1.2-3.5c-0.8-1-2-1.8-3.6-2.4s-3.5-1.3-5.8-1.8l-6.8-1.7c-5.3-1.3-9.4-3.3-12.5-6
			c-3.1-2.7-4.6-6.4-4.6-11c0-3.8,1-7.1,3-9.9s4.9-5,8.4-6.6c3.6-1.6,7.7-2.4,12.2-2.4c4.6,0,8.7,0.8,12.2,2.4
			c3.5,1.6,6.2,3.8,8.1,6.6s2.9,6.1,3,9.8H365.6z"/>
		<path class="st0" d="M400.7,84.7V22.1h13.2v25.8h26.9V22.1H454v62.6h-13.2V58.8h-26.9v25.8H400.7z"/>
		<path class="st0" d="M488.4,84.7h-14.2l21.6-62.6h17l21.6,62.6h-14.2l-15.7-48.3h-0.5L488.4,84.7z M487.5,60.1H521v10.3h-33.5
			V60.1z"/>
		<path class="st0" d="M554.7,84.7V22.1h24.7c4.7,0,8.8,0.8,12.1,2.5c3.3,1.7,5.9,4.1,7.7,7.1c1.8,3.1,2.6,6.7,2.6,10.8
			c0,4.2-0.9,7.7-2.7,10.7c-1.8,3-4.4,5.3-7.8,6.9c-3.4,1.6-7.5,2.4-12.3,2.4h-16.5V51.9h14.4c2.5,0,4.6-0.3,6.3-1s2.9-1.7,3.7-3.1
			c0.8-1.4,1.2-3.1,1.2-5.2c0-2.1-0.4-3.8-1.2-5.3c-0.8-1.4-2.1-2.5-3.8-3.3c-1.7-0.7-3.8-1.1-6.3-1.1h-8.9v51.8H554.7z M588.5,56.2
			L604,84.7h-14.6l-15.2-28.5H588.5z"/>
		<path class="st0" d="M623.9,84.7V22.1h13.2v27.6h0.8l22.5-27.6h15.9l-23.2,28l23.5,34.6h-15.8l-17.1-25.7l-6.5,7.9v17.8H623.9z"/>
	</g>
</g>
</svg>
